<svg xmlns="http://www.w3.org/2000/svg" viewBox="0 0 200 200">
  <rect width="200" height="200" fill="#fff"/>
  <path d="M100 20 C 100 70, 130 100, 180 100 C 130 100, 100 130, 100 180 C 100 130, 70 100, 20 100 C 70 100, 100 70, 100 20 Z" fill="#4285F4"/>
  <path d="M150 30 C 150 50, 160 60, 180 60 C 160 60, 150 70, 150 90 C 150 70, 140 60, 120 60 C 140 60, 150 50, 150 30 Z" fill="#EA4335"/>
  <path d="M40 130 C 40 145, 48 153, 63 153 C 48 153, 40 161, 40 176 C 40 161, 32 153, 17 153 C 32 153, 40 145, 40 130 Z" fill="#FBBC05"/>
</svg>
